<svg id="Layer_1" data-name="Layer 1" xmlns="http://www.w3.org/2000/svg" viewBox="0 0 100 100"><defs><style>.cls-1{fill:#fff;}</style></defs><title>drawer</title><path class="cls-1" d="M7.53,25.83a5,5,0,0,1-5-5.1V13a5,5,0,0,1,5-5.11H92.47a5,5,0,0,1,5,5.11v7.77a5,5,0,0,1-5,5.1Z"/><path class="cls-1" d="M7.53,59.39a5,5,0,0,1-5-5.11V46.51a5,5,0,0,1,5-5.1H92.47a5,5,0,0,1,5,5.1v7.77a5,5,0,0,1-5,5.11Z"/><path class="cls-1" d="M7.53,92.15a5,5,0,0,1-5-5.11V79.27a5,5,0,0,1,5-5.1H92.47a5,5,0,0,1,5,5.1V87a5,5,0,0,1-5,5.11Z"/></svg>