<svg id="Layer_1" data-name="Layer 1" xmlns="http://www.w3.org/2000/svg" viewBox="0 0 100 100"><defs><style>.cls-1{fill:#fff;}</style></defs><title>close</title><path class="cls-1" d="M87.21,74.5,66.32,53.61a5.11,5.11,0,0,1,0-7.22L87.21,25.5a5.11,5.11,0,0,0,0-7.22l-5.49-5.49a5.11,5.11,0,0,0-7.22,0L53.61,33.68a5.11,5.11,0,0,1-7.22,0L25.5,12.79a5.11,5.11,0,0,0-7.22,0l-5.49,5.49a5.11,5.11,0,0,0,0,7.22L33.68,46.39a5.11,5.11,0,0,1,0,7.22L12.79,74.5a5.11,5.11,0,0,0,0,7.22l5.49,5.49a5.11,5.11,0,0,0,7.22,0L46.39,66.32a5.11,5.11,0,0,1,7.22,0L74.5,87.21a5.11,5.11,0,0,0,7.22,0l5.49-5.49A5.11,5.11,0,0,0,87.21,74.5Z"/></svg>