<svg id="Layer_1" data-name="Layer 1" xmlns="http://www.w3.org/2000/svg" viewBox="0 0 100 100"><defs><style>.cls-1{fill:#fff;}</style></defs><title>plus</title><path class="cls-1" d="M93.63,41H64.09a5.1,5.1,0,0,1-5.1-5.1V6.37a5.11,5.11,0,0,0-5.11-5.11H46.12A5.11,5.11,0,0,0,41,6.37V35.91a5.1,5.1,0,0,1-5.1,5.1H6.37a5.11,5.11,0,0,0-5.11,5.11v7.76A5.11,5.11,0,0,0,6.37,59H35.91a5.1,5.1,0,0,1,5.1,5.1V93.63a5.11,5.11,0,0,0,5.11,5.11h7.76A5.11,5.11,0,0,0,59,93.63V64.09a5.1,5.1,0,0,1,5.1-5.1H93.63a5.11,5.11,0,0,0,5.11-5.11V46.12A5.11,5.11,0,0,0,93.63,41Z"/></svg>